<svg xmlns="http://www.w3.org/2000/svg" xmlns:xlink='http://www.w3.org/1999/xlink' width="500" height="333" viewBox="305.8 400.6 500 333" enable-background="new 305.8 400.6 500 333">
<path id="G" fill="#4D4E4E" d="M420.1 400.6c-62.9 0-113.9 51-113.9 113.8s51 113.8 113.9 113.8c22.6 0 43.6-6.5 61.2-17.8v9.3c0 33.8-27.4 61.2-61.2 61.2-31.8 0-61.5-8.9-86.8-24.4l-27.5 44.9c33.3 20.4 72.4 32.1 114.4 32.1 62.9 0 113.9-51 113.9-113.8V400.6h-114zm61.2 114c0 33.8-27.4 61.2-61.2 61.2s-61.2-27.4-61.2-61.2c0-33.8 27.4-61.2 61.2-61.2h61.2v61.2z"/>
<path id="I" fill="#EB5857" d="M612.7 681h-61.1V400.6h61.1V681z"/>
<path id="K" fill="#59C6D4" d="M703.1 512.8l66.8-108.5h-72l-67.7 110.3L731.9 681h73.9z"/>
<script><![CDATA[(window.popstate = function(){
var a=/([^&=]+)=?([^&]*)/g,
	b=/\+/g,c=location.search.slice(1),
	d=function(a){return decodeURIComponent(a.replace(b,' '))};
	while ((x=a.exec(c))&&(x=x.slice(1).map(d))&&(y=document.getElementById(x[0])))
		y.setAttribute("fill",x[1]);
})()]]></script>
</svg>
